<svg width="14" height="15" viewBox="0 0 14 15" fill="none" xmlns="http://www.w3.org/2000/svg">
<path d="M11.9274 12.4303H9.85425V9.18175C9.85425 8.40708 9.8385 7.41017 8.77392 7.41017C7.693 7.41017 7.52792 8.25308 7.52792 9.12458V12.4303H5.45475V5.75H7.44625V6.66058H7.47308C7.75133 6.13558 8.428 5.58142 9.43892 5.58142C11.5395 5.58142 11.928 6.96392 11.928 8.7635V12.4303H11.9274ZM3.11325 4.83592C2.9551 4.83599 2.79848 4.80488 2.65236 4.74436C2.50625 4.68383 2.3735 4.59509 2.26172 4.4832C2.14994 4.37132 2.06133 4.23848 2.00095 4.09231C1.94056 3.94614 1.9096 3.78949 1.90983 3.63133C1.90995 3.3932 1.98067 3.16046 2.11307 2.96253C2.24546 2.76459 2.43357 2.61036 2.65362 2.51934C2.87367 2.42832 3.11576 2.4046 3.34929 2.45117C3.58282 2.49774 3.7973 2.61251 3.9656 2.78097C4.1339 2.94944 4.24847 3.16402 4.29481 3.3976C4.34116 3.63118 4.3172 3.87325 4.22596 4.09321C4.13473 4.31316 3.98032 4.50113 3.78225 4.63333C3.58419 4.76553 3.35138 4.83603 3.11325 4.83592ZM4.15275 12.4303H2.07375V5.75H4.15275V12.4303ZM12.9646 0.5H1.03308C0.462 0.5 0 0.9515 0 1.50858V13.4914C0 14.0491 0.462 14.5 1.03308 14.5H12.9628C13.5333 14.5 14 14.0491 14 13.4914V1.50858C14 0.9515 13.5333 0.5 12.9628 0.5H12.9646Z" fill="white"/>
</svg>
